<?xml version="1.0" standalone="no"?>
<!DOCTYPE svg PUBLIC "-//W3C//DTD SVG 20010904//EN"
 "http://www.w3.org/TR/2001/REC-SVG-20010904/DTD/svg10.dtd">
<svg version="1.0" xmlns="http://www.w3.org/2000/svg"
 width="100.000000pt" height="100.000000pt" viewBox="0 0 100.000000 100.000000"
 preserveAspectRatio="xMidYMid meet">
<metadata>
Created by potrace 1.14, written by Peter Selinger 2001-2017
</metadata>
<g transform="translate(0.000000,100.000000) scale(0.100000,-0.100000)"
fill="#000000" stroke="none">
<path d="M420 993 c-51 -8 -147 -47 -198 -80 -270 -179 -295 -572 -48 -789
287 -253 751 -89 817 290 58 335 -236 633 -571 579z m20 -313 c26 -28 33 -30
98 -30 l69 0 47 -50 46 -49 0 -115 c0 -63 -3 -121 -6 -130 -5 -14 -29 -16
-160 -16 l-154 0 0 130 c0 127 -1 131 -23 139 -57 22 -69 88 -23 128 37 32 72
29 106 -7z"/>
<path d="M381 663 c-1 -16 -7 -23 -22 -23 -11 0 -17 -5 -14 -10 4 -6 11 -8 16
-5 5 4 13 -4 18 -17 10 -23 10 -23 10 -1 1 14 9 23 24 26 22 4 22 4 0 6 -14 1
-23 9 -26 24 l-4 22 -2 -22z"/>
<path d="M455 600 c-3 -11 -15 -25 -26 -30 -17 -10 -19 -22 -19 -130 l0 -120
125 0 125 0 0 100 0 100 -50 0 -50 0 0 50 0 50 -49 0 c-41 0 -51 -4 -56 -20z
m165 -115 c0 -12 -16 -15 -80 -15 -64 0 -80 3 -80 15 0 12 16 15 80 15 64 0
80 -3 80 -15z m-2 -52 c-3 -15 -15 -18 -78 -18 -63 0 -75 3 -78 18 -3 15 6 17
78 17 72 0 81 -2 78 -17z m-3 -53 c0 -12 -17 -16 -77 -18 -73 -3 -78 -2 -78
18 0 20 5 21 78 18 60 -2 77 -6 77 -18z"/>
<path d="M590 587 c0 -35 2 -37 32 -37 l32 0 -30 32 c-16 18 -30 35 -31 37 -2
2 -3 -12 -3 -32z"/>
</g>
</svg>
